<mxfile host="app.diagrams.net" modified="2024-03-14T00:57:54.704Z" agent="Mozilla/5.0 (Windows NT 10.0; Win64; x64) AppleWebKit/537.36 (KHTML, like Gecko) Chrome/122.0.0.0 Safari/537.36 Edg/122.0.0.0" version="24.0.5" etag="keum3cHu4BJBniX3lAFa" type="github">
  <diagram name="페이지-1" id="k_NuvW4TJISVBzYvo0GH">
    <mxGraphModel>
      <root>
        <mxCell id="0" />
        <mxCell id="1" parent="0" />
      </root>
    </mxGraphModel>
  </diagram>
</mxfile>
